<!-- Generated by IcoMoon.io -->
<svg version="1.1" xmlns="http://www.w3.org/2000/svg" width="32" height="32" viewBox="0 0 32 32">
<title>bitcoin</title>
<path fill="#f7931a" d="M31.517 19.872c-2.136 8.573-10.817 13.787-19.389 11.648-8.568-2.12-13.787-10.82-11.645-19.38 2.133-8.58 10.817-13.797 19.384-11.663 8.573 2.14 13.789 10.82 11.651 19.397zM23.051 13.721c0.32-2.12-1.299-3.267-3.52-4.040l0.72-2.871-1.753-0.44-0.7 2.809c-0.46-0.116-0.94-0.223-1.419-0.333l0.701-2.836-1.76-0.44-0.72 2.887c-0.38-0.089-0.753-0.176-1.12-0.267l-2.42-0.6-0.467 1.876c0 0 1.3 0.3 1.273 0.315 0.713 0.181 0.84 0.648 0.82 1.021l-1.969 7.893c-0.1 0.221-0.32 0.541-0.819 0.419 0.020 0.027-1.28-0.32-1.28-0.32l-0.88 2.013 2.28 0.568 1.24 0.323-0.72 2.92 1.76 0.436 0.72-2.893c0.48 0.133 0.94 0.253 1.4 0.364l-0.68 2.872 1.76 0.44 0.727-2.92c2.987 0.569 5.24 0.343 6.187-2.365 0.76-2.183-0.040-3.44-1.623-4.261 1.139-0.257 2-1.013 2.24-2.573zM19.037 19.348c-0.539 2.187-4.209 1-5.4 0.707l0.96-3.867c1.195 0.307 5.009 0.893 4.44 3.16zM19.584 13.695c-0.493 1.987-3.549 0.98-4.54 0.733l0.872-3.52c0.992 0.24 4.183 0.699 3.667 2.779z"></path>
</svg>
