<!-- Generated by IcoMoon.io -->
<svg version="1.1" xmlns="http://www.w3.org/2000/svg" width="32" height="32" viewBox="0 0 32 32">
<title>electron</title>
<path fill="#47848f" d="M3.531 15.571c-1.384-2.413-1.665-4.672-0.681-6.375 1.317-2.283 4.624-3.080 8.805-2.319 0.211 0.029 0.371 0.209 0.371 0.425 0 0.237-0.192 0.429-0.429 0.429-0.034 0-0.067-0.004-0.098-0.011l0.003 0.001c-3.867-0.704-6.815 0.007-7.909 1.904-0.807 1.396-0.564 3.345 0.683 5.52 0.044 0.066 0.071 0.148 0.071 0.236 0 0.237-0.192 0.429-0.429 0.429-0.168 0-0.314-0.097-0.384-0.237l-0.001-0.002zM23.424 7.479c2.447 0.032 4.208 0.795 5.001 2.168 1.093 1.892 0.24 4.793-2.291 7.783-0.074 0.077-0.12 0.182-0.12 0.298 0 0.237 0.192 0.429 0.429 0.429 0.14 0 0.265-0.067 0.343-0.171l0.001-0.001c2.739-3.235 3.695-6.488 2.38-8.767-0.968-1.676-3.013-2.56-5.732-2.596-0.009-0.001-0.019-0.001-0.029-0.001-0.237 0-0.429 0.192-0.429 0.429s0.192 0.429 0.429 0.429c0.006 0 0.012-0 0.018-0l-0.001 0zM20.952 27.797c-0.063-0.039-0.14-0.061-0.221-0.061-0.155 0-0.292 0.083-0.367 0.206l-0.001 0.002c-1.245 2.071-2.773 3.199-4.347 3.199-2.189 0-4.277-2.196-5.6-5.891-0.057-0.174-0.219-0.297-0.409-0.297-0.237 0-0.429 0.192-0.429 0.429 0 0.057 0.011 0.111 0.031 0.16l-0.001-0.003c1.431 3.997 3.773 6.459 6.405 6.459 1.92 0 3.697-1.309 5.084-3.613 0.039-0.063 0.062-0.14 0.062-0.222 0-0.155-0.082-0.291-0.205-0.366l-0.002-0.001zM30.76 24.339c-0.002 1.133-0.92 2.050-2.053 2.050-0.448 0-0.863-0.144-1.201-0.387l0.006 0.004c-3.273 1.927-9.528 0.947-15.413-2.453-2.507-1.447-4.703-3.189-6.393-5.047-0.076-0.077-0.124-0.184-0.124-0.301 0-0.237 0.192-0.429 0.429-0.429 0.132 0 0.25 0.059 0.328 0.153l0.001 0.001c1.629 1.791 3.756 3.479 6.187 4.881 5.556 3.208 11.404 4.16 14.396 2.541-0.169-0.292-0.269-0.643-0.269-1.017 0-1.134 0.919-2.053 2.053-2.053s2.053 0.919 2.053 2.053c0 0.002 0 0.003 0 0.005v-0zM5.344 24.339c0 0.001 0 0.002 0 0.004 0 1.134-0.919 2.053-2.053 2.053s-2.053-0.919-2.053-2.053c0-0.769 0.423-1.44 1.050-1.792l0.010-0.005c-0.311-3.836 3.72-8.979 9.813-12.496 2.531-1.461 5.165-2.499 7.641-3.028 0.018-0.003 0.039-0.004 0.060-0.004 0.237 0 0.429 0.192 0.429 0.429 0 0.194-0.129 0.359-0.306 0.411l-0.003 0.001c-2.387 0.512-4.937 1.516-7.393 2.933-5.739 3.313-9.531 8.089-9.397 11.503 0.051-0.004 0.1-0.008 0.151-0.008 1.133 0 2.053 0.92 2.052 2.052zM13.963 2.053c0.041-1.102 0.944-1.979 2.052-1.979s2.011 0.878 2.052 1.976l0 0.004c0 0.031-0.003 0.060-0.004 0.089 3.399 1.756 5.76 7.747 5.76 14.671 0 2.847-0.397 5.579-1.139 7.947-0.050 0.186-0.217 0.32-0.415 0.32-0.237 0-0.429-0.192-0.429-0.429 0-0.053 0.009-0.103 0.027-0.15l-0.001 0.003c0.715-2.283 1.1-4.929 1.1-7.691 0-6.52-2.168-12.127-5.129-13.817-0.348 0.665-1.033 1.111-1.823 1.111-1.133 0-2.051-0.918-2.051-2.051 0-0.001 0-0.002 0-0.003v0zM15.701 15.361c-0.675 0.149-1.172 0.743-1.172 1.452 0 0.82 0.665 1.485 1.485 1.485 0.111 0 0.219-0.012 0.323-0.035l-0.010 0.002c0.675-0.149 1.172-0.743 1.172-1.452 0-0.82-0.665-1.485-1.485-1.485-0.111 0-0.219 0.012-0.323 0.035l0.010-0.002z"></path>
</svg>
