<!-- Generated by IcoMoon.io -->
<svg version="1.1" xmlns="http://www.w3.org/2000/svg" width="32" height="32" viewBox="0 0 32 32">
<title>monero</title>
<path fill="#f60" d="M16 0c-8.847 0-16 7.164-16 16.020 0 1.78 0.304 3.476 0.824 5.080h4.769v-13.461l10.407 10.421 10.407-10.42v13.46h4.769c0.519-1.604 0.824-3.3 0.824-5.080 0-8.853-7.153-16.020-16-16.020zM13.616 20.409l-4.556-4.561v8.468h-6.716c2.816 4.603 7.893 7.684 13.656 7.684s10.883-3.081 13.66-7.685h-6.72v-8.468l-4.515 4.561-2.384 2.387-2.419-2.387z"></path>
</svg>
