<!-- Generated by IcoMoon.io -->
<svg version="1.1" xmlns="http://www.w3.org/2000/svg" width="20" height="20" viewBox="0 0 20 20">
<title>paste</title>
<path d="M10.5 20h-8.5c-1.105 0-2-0.895-2-2v0-12c0-1.1 0.9-2 2-2h1v-1l2.030-0.4c0.215-1.465 1.462-2.577 2.97-2.577s2.755 1.112 2.968 2.561l0.002 0.016 2.030 0.4v1h1c1.105 0 2 0.895 2 2v0 1h-2v-1h-1v1h-10v-1h-1v12h5v2h3.5zM8 4c0.552 0 1-0.448 1-1s-0.448-1-1-1v0c-0.552 0-1 0.448-1 1s0.448 1 1 1v0zM10 8h8c1.105 0 2 0.895 2 2v0 8c0 1.105-0.895 2-2 2v0h-8c-1.105 0-2-0.895-2-2v0-8c0-1.1 0.9-2 2-2zM10 10v8h8v-8h-8z"></path>
</svg>
