<svg height="512" viewBox="0 0 64 64" width="512" xmlns="http://www.w3.org/2000/svg"><path d="m27.015 7 4.985 2.848 4.985-2.848-4.985-2.848z"/><path d="m16 42.723-5 2.857v5.697l5-2.857z"/><path d="m14.985 41-4.985-2.848-4.985 2.848 4.985 2.848z"/><path d="m38 14.42v-5.697l-5 2.857v5.697z"/><path d="m27.015 28 4.985 2.848 4.985-2.848-4.985-2.848z"/><path d="m16 22.42v-5.697l-5 2.857v5.697z"/><path d="m4 22.42 5 2.857v-5.697l-5-2.857z"/><path d="m5.015 15 4.985 2.848 4.985-2.848-4.985-2.848z"/><path d="m38 35.42v-5.697l-5 2.857v5.697z"/><path d="m9 45.58-5-2.857v5.697l5 2.857z"/><path d="m53 45.58-5-2.857v5.697l5 2.857z"/><path d="m60 22.42v-5.697l-5 2.857v5.697z"/><path d="m48 22.42 5 2.857v-5.697l-5-2.857z"/><path d="m60 42.723-5 2.857v5.697l5-2.857z"/><path d="m58.985 41-4.985-2.848-4.985 2.848 4.985 2.848z"/><path d="m36.985 49-4.985-2.848-4.985 2.848 4.985 2.848z"/><path d="m31 53.58-5-2.857v5.697l5 2.857z"/><path d="m26 14.42 5 2.857v-5.697l-5-2.857z"/><path d="m26 35.42 5 2.857v-5.697l-5-2.857z"/><path d="m49.015 15 4.985 2.848 4.985-2.848-4.985-2.848z"/><path d="m38 50.723-5 2.857v5.697l5-2.857z"/><path d="m32 20-1-.571v1.571 2.571l1-.571 1 .571v-4.142z"/><path d="m18 17.382v2.236l6-3.635v-2.303z"/><path d="m46 17.382v2.236l-6-3.635v-2.303z"/><path d="m18 50.618v-2.236l6 3.635v2.303z"/><path d="m46 50.618v-2.236l-6 3.635v2.303z"/><path d="m32 41-1-.571v1.571 2.571l1-.571 1 .571v-4.142z"/><path d="m54 28-1-.571v1.571 7.571l1-.571 1 .571v-9.142z"/><path d="m10 28 1-.571v1.571 7.571l-1-.571-1 .571v-9.142z"/></svg>